/* XPM */
static char * chest_open_up_vide_xpm[] = {
"48 48 18 1",
" 	c #3B964A",
".	c #21110D",
"+	c #B6BEC8",
"@	c #755338",
"#	c #040404",
"$	c #B60000",
"%	c #FF2D2D",
"&	c #433416",
"*	c #46000A",
"=	c #866114",
"-	c #770000",
";	c #503625",
">	c #342319",
",	c #677598",
"'	c #AA5A33",
")	c #D97F40",
"!	c #F6A954",
"~	c #3F3013",
"                                                ",
"                                                ",
"                                                ",
"                                                ",
"                                                ",
"                                                ",
"         ..............................         ",
"         ..............................         ",
"         ..............................         ",
"      ...++++++@@@@@@@@@@@@@@@@@@++++++...      ",
"      ...++++++@@@@@@@@@@@@@@@@@@++++++...      ",
"      ...++++++@@@@@@@@@@@@@@@@@@++++++...      ",
"   ...@@@##############################@@@...   ",
"   ...@@@##############################@@@...   ",
"   ...@@@#############$$$$#############@@@...   ",
"   ...@@@#############$$$$#############@@@...   ",
"   ...@@@###########$$%%%%$$###########@@@...   ",
"   ...@@@###########$$%%%%$$###########@@@...   ",
"   ...@@@#########&&$$%%%%$$&&#########@@@...   ",
"   ...@@@#########&&$$%%%%$$&&#########@@@...   ",
"   ...@@@#####****==--$$$$--==****#####@@@...   ",
"   ...;;;+++##****==--$$$$--==****##+++;;;...   ",
"   ...;;;+##****--&&========&&--****##+;;;...   ",
"   ...;;;+##****--&&========&&--****##+;;;...   ",
"   ...>>>,##--------&&&&&&&&--------##,>>>...   ",
"   ...>>>,##--------&&&&&&&&--------##,>>>...   ",
"   ...>>>,##--$$$$$$$$$$$$$$$$$$$$--##,>>>...   ",
"   ...>>>,##--$$$$$$$$$$$$$$$$$$$$--##,>>>...   ",
"   ...>>>,##**--$$%%%%%%%%%%%%$$--**##,>>>...   ",
"   ...>>>,##**--$$%%%%%%%%%%%%$$--**##,>>>...   ",
"   ...>>>,,,##****------------****##,,,>>>...   ",
"   ...>>>,,,##****------------****##,,,>>>...   ",
"   ...>>>,,,,,####************####,,,,,>>>...   ",
"   ...>>>,,,,,####************####,,,,,>>>...   ",
"   ...>>>,,,,,##$$''))))))))''$$##,,,,,>>>...   ",
"   ...>>>,,,,,##$$''))))))))''$$##,,,,,>>>...   ",
"   ...>>>,,,##$$$$$$$$$$$$$$$$$$$$##,,,>>>...   ",
"   ...>>>,,,##$$$$$$$$$$$$$$$$$$$$##,,,>>>...   ",
"   ...>>>,##!!!!##--$$$$$$$$--##!!!!##,>>>...   ",
"      ...,##!!!!##--$$$$$$$$--##!!!!##,...      ",
"      ...,##!!))##------------##))!!##,...      ",
"      ...,##!!))##------------##))!!##,...      ",
"            ######**--------**######            ",
"            ######**--------**######            ",
"                ##~~~~####~~~~##                ",
"                ##~~~~####~~~~##                ",
"                                                ",
"                                                "};
