/* XPM */
static char * chest_close_xpm[] = {
"48 48 9 1",
" 	c #3B964A",
".	c #21110D",
"+	c #503625",
"@	c #677598",
"#	c #755338",
"$	c #B6BEC8",
"%	c #342319",
"&	c #414B66",
"*	c #242A3D",
"                                                ",
"                                                ",
"                                                ",
"      ....................................      ",
"      ....................................      ",
"      ....................................      ",
"   ...+++@@@@@@++++++++++++++++++@@@@@@+++...   ",
"   ...+++@@@@@@++++++++++++++++++@@@@@@+++...   ",
"   ...+++@@@@@@++++++++++++++++++@@@@@@+++...   ",
"   ...###$$$$$$##################$$$$$$###...   ",
"   ...###$$$$$$##################$$$$$$###...   ",
"   ...###$$$$$$##################$$$$$$###...   ",
"   ...###$$$$$$##################$$$$$$###...   ",
"   ...###$$$$$$##################$$$$$$###...   ",
"   ...###$$$$$$##################$$$$$$###...   ",
"   ...###$$$$$$##################$$$$$$###...   ",
"   ...###$$$$$$##################$$$$$$###...   ",
"   ...###$$$$$$##################$$$$$$###...   ",
"   ...###$$$$$$##################$$$$$$###...   ",
"   ...###$$$$$$##################$$$$$$###...   ",
"   ...###$$$$$$##################$$$$$$###...   ",
"   ...+++@@@@@@++++++++++++++++++@@@@@@+++...   ",
"   ...+++@@@@@@++++++++++++++++++@@@@@@+++...   ",
"   ...+++@@@@@@++++++++++++++++++@@@@@@+++...   ",
"   ...@@@@@@@@@@@@$$$$$$$$$$$$@@@@@@@@@@@@...   ",
"   ...@@@@@@@@@@@@$$$$$$$$$$$$@@@@@@@@@@@@...   ",
"   ...@@@@@@@@@@@@$$$$$$$$$$$$@@@@@@@@@@@@...   ",
"   ...%%%&&&&&&%%%&&&******&&&%%%&&&&&&%%%...   ",
"   ...%%%&&&&&&%%%&&&******&&&%%%&&&&&&%%%...   ",
"   ...%%%&&&&&&%%%&&&******&&&%%%&&&&&&%%%...   ",
"   ...%%%@@@@@@+++@@@******@@@+++@@@@@@%%%...   ",
"   ...%%%@@@@@@+++@@@******@@@+++@@@@@@%%%...   ",
"   ...%%%@@@@@@+++@@@******@@@+++@@@@@@%%%...   ",
"   ...%%%@@@@@@+++@@@@@@@@@@@@+++@@@@@@%%%...   ",
"   ...%%%@@@@@@+++@@@@@@@@@@@@+++@@@@@@%%%...   ",
"   ...%%%@@@@@@+++@@@@@@@@@@@@+++@@@@@@%%%...   ",
"   ...%%%@@@@@@++++++++++++++++++@@@@@@%%%...   ",
"   ...%%%@@@@@@++++++++++++++++++@@@@@@%%%...   ",
"   ...%%%@@@@@@++++++++++++++++++@@@@@@%%%...   ",
"      ...@@@@@@++++++++++++++++++@@@@@@...      ",
"      ...@@@@@@++++++++++++++++++@@@@@@...      ",
"      ...@@@@@@++++++++++++++++++@@@@@@...      ",
"                                                ",
"                                                ",
"                                                ",
"                                                ",
"                                                ",
"                                                "};
