/* XPM */
static char * chest_open_xpm[] = {
"48 48 9 1",
" 	c #3B964A",
".	c #21110D",
"+	c #B6BEC8",
"@	c #755338",
"#	c #040404",
"$	c #503625",
"%	c #342319",
"&	c #677598",
"*	c #242A3D",
"                                                ",
"                                                ",
"                                                ",
"                                                ",
"                                                ",
"                                                ",
"         ..............................         ",
"         ..............................         ",
"         ..............................         ",
"      ...++++++@@@@@@@@@@@@@@@@@@++++++...      ",
"      ...++++++@@@@@@@@@@@@@@@@@@++++++...      ",
"      ...++++++@@@@@@@@@@@@@@@@@@++++++...      ",
"   ...@@@##############################@@@...   ",
"   ...@@@##############################@@@...   ",
"   ...@@@##############################@@@...   ",
"   ...@@@##############################@@@...   ",
"   ...@@@##############################@@@...   ",
"   ...@@@##############################@@@...   ",
"   ...@@@##############################@@@...   ",
"   ...@@@##############################@@@...   ",
"   ...@@@##############################@@@...   ",
"   ...$$$++++++@@@@@@@@@@@@@@@@@@++++++$$$...   ",
"   ...$$$++++++@@@@@@@@@@@@@@@@@@++++++$$$...   ",
"   ...$$$++++++@@@@@@@@@@@@@@@@@@++++++$$$...   ",
"   ...%%%&&&&&&$$$&&&******&&&$$$&&&&&&%%%...   ",
"   ...%%%&&&&&&$$$&&&******&&&$$$&&&&&&%%%...   ",
"   ...%%%&&&&&&$$$&&&******&&&$$$&&&&&&%%%...   ",
"   ...%%%&&&&&&$$$&&&******&&&$$$&&&&&&%%%...   ",
"   ...%%%&&&&&&$$$&&&******&&&$$$&&&&&&%%%...   ",
"   ...%%%&&&&&&$$$&&&******&&&$$$&&&&&&%%%...   ",
"   ...%%%&&&&&&$$$&&&******&&&$$$&&&&&&%%%...   ",
"   ...%%%&&&&&&$$$&&&******&&&$$$&&&&&&%%%...   ",
"   ...%%%&&&&&&$$$&&&******&&&$$$&&&&&&%%%...   ",
"   ...%%%&&&&&&$$$&&&&&&&&&&&&$$$&&&&&&%%%...   ",
"   ...%%%&&&&&&$$$&&&&&&&&&&&&$$$&&&&&&%%%...   ",
"   ...%%%&&&&&&$$$&&&&&&&&&&&&$$$&&&&&&%%%...   ",
"   ...%%%&&&&&&$$$$$$$$$$$$$$$$$$&&&&&&%%%...   ",
"   ...%%%&&&&&&$$$$$$$$$$$$$$$$$$&&&&&&%%%...   ",
"   ...%%%&&&&&&$$$$$$$$$$$$$$$$$$&&&&&&%%%...   ",
"      ...&&&&&&$$$$$$$$$$$$$$$$$$&&&&&&...      ",
"      ...&&&&&&$$$$$$$$$$$$$$$$$$&&&&&&...      ",
"      ...&&&&&&$$$$$$$$$$$$$$$$$$&&&&&&...      ",
"                                                ",
"                                                ",
"                                                ",
"                                                ",
"                                                ",
"                                                "};
