/* XPM */
static char * chest_open_right_xpm[] = {
"48 48 24 1",
" 	c #3B964A",
".	c #21110D",
"+	c #B6BEC8",
"@	c #755338",
"#	c #B5B008",
"$	c #040404",
"%	c #B60000",
"&	c #FF2D2D",
"*	c #433416",
"=	c #770000",
"-	c #46000A",
";	c #866114",
">	c #6E6C68",
",	c #BFB7A6",
"'	c #503625",
")	c #342319",
"!	c #677598",
"~	c #D97F40",
"{	c #F6A954",
"]	c #E8E8E8",
"^	c #F7D099",
"/	c #AA5A33",
"(	c #84482A",
"_	c #3F3013",
"                                                ",
"                                                ",
"                                                ",
"                                                ",
"                                                ",
"                                                ",
"         ..............................         ",
"         ..............................         ",
"         ..............................         ",
"      ...++++++@@@@@@@@@@@@@@@@@@++++++...      ",
"      ...++++++@@@@@@@@@@@@@@@@@@++++++...      ",
"      ...++++++@@@@@@@@@@@@@@@@@@++++++...      ",
"   ...@@@######$$$$$$$$$$##############@@@...   ",
"   ...@@@######$$$$$$$$$$##############@@@...   ",
"   ...@@@######$$%%&&&&%%$$############@@@...   ",
"   ...@@@######$$%%&&&&%%$$############@@@...   ",
"   ...@@@########$$%%&&&&%%$$##########@@@...   ",
"   ...@@@########$$%%&&&&%%$$##########@@@...   ",
"   ...@@@####$$$$**==%%%%%%**$$$$######@@@...   ",
"   ...@@@####$$$$**==%%%%%%**$$$$######@@@...   ",
"   ...@@@##$$----;;====%%>>,,>>--$$####@@@...   ",
"   ...'''++$$----;;====%%>>,,>>--$$++++'''...   ",
"   ...'''$$----==**;;;;;;,,****----$$++'''...   ",
"   ...'''$$----==**;;;;;;,,****----$$++'''...   ",
"   ...)))$$========******>>,,>>====$$!!)))...   ",
"   ...)))$$========******>>,,>>====$$!!)))...   ",
"   ...)))$$==%%%%%%%%%%%%%%%%%%%%==$$!!)))...   ",
"   ...)))$$==%%%%%%%%%%%%%%%%%%%%==$$!!)))...   ",
"   ...)))$$--==%%&&&&&&&&&&&&%%==--$$!!)))...   ",
"   ...)))$$--==%%&&&&&&&&&&&&%%==--$$!!)))...   ",
"   ...)))!!$$----============----$$!!!!)))...   ",
"   ...)))!!$$----============----$$!!!!)))...   ",
"   ...)))!!!!$$$$~~~~{{{{]]$$^^$$!!!!!!)))...   ",
"   ...)))!!!!$$$$~~~~{{{{]]$$^^$$!!!!!!)))...   ",
"   ...)))!!!!!!$$////~~~~{{{{//$$!!!!!!)))...   ",
"   ...)))!!!!!!$$////~~~~{{{{//$$!!!!!!)))...   ",
"   ...)))!!!!!!''$$==%%%%(((($$''!!!!!!)))...   ",
"   ...)))!!!!!!''$$==%%%%(((($$''!!!!!!)))...   ",
"   ...)))!!!!!!''$$==%%%%====$$''!!!!!!)))...   ",
"      ...!!!!!!''$$==%%%%====$$''!!!!!!...      ",
"      ...!!!!!!''$$$${{{{$$==$$''!!!!!!...      ",
"      ...!!!!!!''$$$${{{{$$==$$''!!!!!!...      ",
"                 $$$${{~~$$--$$                 ",
"                 $$$${{~~$$--$$                 ",
"                   $$$$$$__$$                   ",
"                   $$$$$$__$$                   ",
"                                                ",
"                                                "};
