/* XPM */
static char * door_close_xpm[] = {
"48 48 8 1",
" 	c #3B964A",
".	c #21110D",
"+	c #755338",
"@	c #503625",
"#	c #342319",
"$	c #E9CE7C",
"%	c #D99945",
"&	c #000000",
"                                                ",
"                                                ",
"                                                ",
"................................................",
"................................................",
"................................................",
"...+++++++++++++++++++++++++++++++++++++++++....",
"...+++++++++++++++++++++++++++++++++++++++++....",
"...+++++++++++++++++++++++++++++++++++++++++....",
"...+++++++++++++++++++++++++++++++++++++++++....",
"...+++++++++++++++++++++++++++++++++++++++++....",
"...@@@@@##################################@@....",
"...@@@@@##################################@@....",
"...@@@@@##################################@@....",
"...+++++##@@@@@@###@@@@@@@@@@@###@@@@@@###++....",
"...+++++##@@@@@@###@@@@@@@@@@@###@@@@@@###++....",
"...+++++##@@@@@@###@@@@@@@@@@@###@@@@@@###++....",
"...+++++##@@@@@@@@@@@@@@@@@@@@###@@@@@@###++....",
"...+++++##@@@@@@@@@@@@@@@@@@@@###@@@@@@###++....",
"...+++++##@@@@@@@@@@@@@@@@@@@@###@@@@@@###++....",
"...+++++##@@@@@@@@@@@@@@@@@@@@@@@@@@@@@###++....",
"...+++++##@@@@@@@@@@@@@@@@@@@@@@@@@@@@@###++....",
"...+++++##@@@@@@@@@@@@@@@@@@@@@@@@@@@@@###++....",
"...+++++##@@@@@@@@@@@@@@@@@@@@@@@@@@@@@###++....",
"...+++++##@@@@@@@@@@@@@@@@@@@@@@@@@@@@@###++....",
"...+++++##@@@@@@@@@@@@@@@@@@@@@@@$$$%%%###++....",
"...+++++##@@@@@@@@@@@@@@@@@@@@@@@$$$%%%###++....",
"...+++++##@@@@@@@@@@@@@@@@@@@@@@@$$$%%%###++....",
"...+++++##@@@@@@@@@@@@@@@@@@@@@@@%%%%%%###++....",
"...+++++##@@@@@@@@@@@@@@@@@@@@@@@%%%%%%###++....",
"...+++++##@@@@@@@@@@@@@@@@@@@@@@@%%%%%%###++....",
"...+++++##@@@@@@@@@@@@@@@@@@@@@@@#########++....",
"...+++++##@@@@@@@@@@@@@@@@@@@@@@@#########++....",
"...+++++##@@@@@@@@@@@@@@@@@@@@@@@#########++....",
"...+++++##@@@@@@###@@@@@@@@@@@@@@@@@@@@###++....",
"...+++++##@@@@@@###@@@@@@@@@@@@@@@@@@@@###++....",
"...+++++##@@@@@@###@@@@@@@@@@@@@@@@@@@@###++....",
"...+++++##@@@@@@###@@@@@@@@@@@@@@@@@@@@###++....",
"...+++++##@@@@@@###@@@@@@@@@@@@@@@@@@@@###++....",
"...+++++##@@@@@@###@@@@@@@@@@@@@@@@@@@@###++....",
"...+++++##@@@@@@###@@@@@@@@@@@###@@@@@@###++....",
"...+++++##@@@@@@###@@@@@@@@@@@###@@@@@@###++....",
"...&&&&&&&&&&&&&&&&&&&&&&&&&&&&&&&&&&&&&&&......",
"...&&&&&&&&&&&&&&&&&&&&&&&&&&&&&&&&&&&&&&&......",
"...&&&&&&&&&&&&&&&&&&&&&&&&&&&&&&&&&&&&&&&......",
"&&&                                       &&&&&&",
"&&&                                       &&&&&&",
"&&&                                       &&&&&&"};
