/* XPM */
static char * door_open_xpm[] = {
"48 48 54 1",
" 	c #21110D",
".	c #755338",
"+	c #503625",
"@	c #342319",
"#	c #000000",
"$	c #323232",
"%	c #F4F8F5",
"&	c #686C68",
"*	c #F1F5F2",
"=	c #ACAFAC",
"-	c #B9BBBA",
";	c #222222",
">	c #C1C5C3",
",	c #A9ACAB",
"'	c #BBBEBD",
")	c #CED0CE",
"!	c #C2C4C2",
"~	c #B3B6B4",
"{	c #E3E7E3",
"]	c #B5B8B6",
"^	c #2E2E2E",
"/	c #B2B5B2",
"(	c #F0F3F0",
"_	c #E1E5E2",
":	c #676A67",
"<	c #3B3B3B",
"[	c #7B7B7B",
"}	c #D9DFDB",
"|	c #BDC0BD",
"1	c #EEF1EF",
"2	c #929492",
"3	c #CED2D0",
"4	c #636363",
"5	c #EEF2F0",
"6	c #D8DCD8",
"7	c #818383",
"8	c #444944",
"9	c #AEB2AE",
"0	c #B1B4B1",
"a	c #7A7C7A",
"b	c #DCDEDD",
"c	c #616161",
"d	c #A5A8A6",
"e	c #A7ABA9",
"f	c #CBCDCB",
"g	c #DDDFDE",
"h	c #383838",
"i	c #797B79",
"j	c #DADDDA",
"k	c #BCBFBC",
"l	c #F2F6F3",
"m	c #E4E7E4",
"n	c #B5B8B7",
"o	c #3B964A",
"                                                ",
"                                                ",
"                                                ",
"   ..........................................   ",
"   ..........................................   ",
"   ..........................................   ",
"   ..........................................   ",
"   ..........................................   ",
"   ..........................................   ",
"   +++@@@@@@@@@@@@@@@@@@@@@@@@@@@@@@@@@@@@+++   ",
"   +++@@@@@@@@@@@@@@@@@@@@@@@@@@@@@@@@@@@@+++   ",
"   +++@@@@@@@@@@@@@@@@@@@@@@@@@@@@@@@@@@@@+++   ",
"   ...@@@+++##############################...   ",
"   ...@@@+++##############################...   ",
"   ...@@@+++##############################...   ",
"   ...@@@+++$%%%%%%&*###=-#;%%%%>#########...   ",
"   ...@@@+++###,'##;*###=-#;*#############...   ",
"   ...@@@+++###,'##;*###=-#;*#############...   ",
"   ...@@@+++###,'##;%%%%%-#;%%%%,#########...   ",
"   ...@@@+++###,'##;*###=-#;*#############...   ",
"   ...@@@+++###,'##;*###=-#;*#############...   ",
"   ...@@@+++###,'##;*###=-#;%%%%)#########...   ",
"   ...@@@+++##############################...   ",
"   ...@@@+++##############################...   ",
"   ...@@@+++##############################...   ",
"   ...@@@+++##############################...   ",
"   ...@@@+++##############################...   ",
"   ...@@@+++##############################...   ",
"   ...@@@+++##############################...   ",
"   ...@@@+++##############################...   ",
"   ...@@@+++#####;%%%%>;%!##=~;%%*{]^##/~#...   ",
"   ...@@@+++#####;*####;(_:#=~;*#<[}|##/~#...   ",
"   ...@@@+++#####;*####;123#=~;*###45##/~#...   ",
"   ...@@@+++#####;%%%%,;1#67=~;*####*8#90#...   ",
"   ...@@@+++#####;*####;1#ab=~;*###c5##de#...   ",
"   ...@@@+++#####;*####;1##fg~;*#hijk#####...   ",
"   ...@@@+++#####;%%%%);1##c*~;%%lmn^##/~#...   ",
"   ...@@@+++##############################...   ",
"   ...@@@+++##############################...   ",
"   ...@@@+++##############################...   ",
"   ...@@@+++##############################...   ",
"   ...@@@+++##############################...   ",
"   ##########################################   ",
"################################################",
"   ##########################################   ",
"###oooooooooooooooooooooooooooooooooooooooooo###",
"###oooooooooooooooooooooooooooooooooooooooooo###",
"###oooooooooooooooooooooooooooooooooooooooooo###"};
