/* XPM */
static char * perso_left_xpm[] = {
"48 48 17 1",
" 	c #3B964A",
".	c #040404",
"+	c #B60000",
"@	c #FF2D2D",
"#	c #433416",
"$	c #770000",
"%	c #46000A",
"&	c #6E6C68",
"*	c #BFB7A6",
"=	c #866114",
"-	c #F7D099",
";	c #E8E8E8",
">	c #F6A954",
",	c #D97F40",
"'	c #84482A",
")	c #AA5A33",
"!	c #3F3013",
"                                                ",
"                                                ",
"                                                ",
"                                                ",
"                    ..........                  ",
"                    ..........                  ",
"                  ..++@@@@++..                  ",
"                  ..++@@@@++..                  ",
"                ..++@@@@++..                    ",
"                ..++@@@@++..                    ",
"            ....##++++++$$##....                ",
"            ....##++++++$$##....                ",
"          ..%%&&**&&++$$$$==%%%%..              ",
"          ..%%&&**&&++$$$$==%%%%..              ",
"        ..%%%%####**======##$$%%%%..            ",
"        ..%%%%####**======##$$%%%%..            ",
"        ..$$$$&&**&&######$$$$$$$$..            ",
"        ..$$$$&&**&&######$$$$$$$$..            ",
"        ..$$++++++++++++++++++++$$..            ",
"        ..$$++++++++++++++++++++$$..            ",
"        ..%%$$++@@@@@@@@@@@@++$$%%..            ",
"        ..%%$$++@@@@@@@@@@@@++$$%%..            ",
"          ..%%%%$$$$$$$$$$$$%%%%..              ",
"          ..%%%%$$$$$$$$$$$$%%%%..              ",
"            ..--..;;>>>>,,,,....                ",
"            ..--..;;>>>>,,,,....                ",
"            ..''>>>>,,,,))))..                  ",
"            ..''>>>>,,,,))))..                  ",
"              ..%%%%++++$$..                    ",
"              ..%%%%++++$$..                    ",
"              ..$$$$++++$$..                    ",
"              ..$$$$++++$$..                    ",
"              ..$$..>>>>....                    ",
"              ..$$..>>>>....                    ",
"              ..%%..,,>>....                    ",
"              ..%%..,,>>....                    ",
"                ..!!......                      ",
"                ..!!......                      ",
"                                                ",
"                                                ",
"                                                ",
"                                                ",
"                                                ",
"                                                ",
"                                                ",
"                                                ",
"                                                ",
"                                                "};
