/* XPM */
static char * perso_up_xpm[] = {
"48 48 12 1",
" 	c #3B964A",
".	c #040404",
"+	c #B60000",
"@	c #FF2D2D",
"#	c #433416",
"$	c #46000A",
"%	c #866114",
"&	c #770000",
"*	c #AA5A33",
"=	c #D97F40",
"-	c #F6A954",
";	c #3F3013",
"                                                ",
"                                                ",
"                                                ",
"                                                ",
"                                                ",
"                                                ",
"                    ....                        ",
"                    ....                        ",
"                  ..++++..                      ",
"                  ..++++..                      ",
"                ..++@@@@++..                    ",
"                ..++@@@@++..                    ",
"            ....##++@@@@++##....                ",
"            ....##++@@@@++##....                ",
"          ..$$$$%%&&++++&&%%$$$$..              ",
"          ..$$$$%%&&++++&&%%$$$$..              ",
"        ..$$$$&&##%%%%%%%%##&&$$$$..            ",
"        ..$$$$&&##%%%%%%%%##&&$$$$..            ",
"        ..&&&&&&&&########&&&&&&&&..            ",
"        ..&&&&&&&&########&&&&&&&&..            ",
"        ..&&++++++++++++++++++++&&..            ",
"        ..&&++++++++++++++++++++&&..            ",
"        ..$$&&++@@@@@@@@@@@@++&&$$..            ",
"        ..$$&&++@@@@@@@@@@@@++&&$$..            ",
"          ..$$$$&&&&&&&&&&&&$$$$..              ",
"          ..$$$$&&&&&&&&&&&&$$$$..              ",
"            ....$$$$$$$$$$$$....                ",
"            ....$$$$$$$$$$$$....                ",
"            ..++**========**++..                ",
"            ..++**========**++..                ",
"          ..++++++++++++++++++++..              ",
"          ..++++++++++++++++++++..              ",
"        ..----..&&++++++++&&..----..            ",
"        ..----..&&++++++++&&..----..            ",
"        ..--==..&&&&&&&&&&&&..==--..            ",
"        ..--==..&&&&&&&&&&&&..==--..            ",
"          ......$$&&&&&&&&$$......              ",
"          ......$$&&&&&&&&$$......              ",
"              ..;;;;....;;;;..                  ",
"              ..;;;;....;;;;..                  ",
"                                                ",
"                                                ",
"                                                ",
"                                                ",
"                                                ",
"                                                ",
"                                                ",
"                                                "};
