/* XPM */
static char * Treegrass1_xpm[] = {
"48 48 13 1",
" 	c #3B964A",
".	c #171717",
"+	c #93C147",
"@	c #598C46",
"#	c #77A947",
"$	c #346B3D",
"%	c #213F2F",
"&	c #446435",
"*	c #2E2415",
"=	c #711400",
"-	c #4F3712",
";	c #644F1B",
">	c #7B642E",
"                     ......                     ",
"                     ......                     ",
"                     ......                     ",
"                  ...++++++...                  ",
"                  ...++++++...                  ",
"                  ...++++++...                  ",
"               ...@@@++++++@@@...               ",
"               ...@@@++++++@@@...               ",
"               ...@@@++++++@@@...               ",
"               ...############...               ",
"               ...############...               ",
"               ...############...               ",
"            ...$$$@@@######@@@$$$...            ",
"            ...$$$@@@######@@@$$$...            ",
"            ...$$$@@@######@@@$$$...            ",
"         ...%%%@@@@@@@@@@@@@@@@@@%%%...         ",
"         ...%%%@@@@@@@@@@@@@@@@@@%%%...         ",
"         ...%%%@@@@@@@@@@@@@@@@@@%%%...         ",
"         ...$$$$$$@@@@@@@@@@@@$$$$$$...         ",
"         ...$$$$$$@@@@@@@@@@@@$$$$$$...         ",
"         ...$$$$$$@@@@@@@@@@@@$$$$$$...         ",
"         ...$$$$$$$$$$$$$$$$$$$$$$$$...         ",
"         ...$$$$$$$$$$$$$$$$$$$$$$$$...         ",
"         ...$$$$$$$$$$$$$$$$$$$$$$$$...         ",
"         ...%%%$$$$$$$$$$$$$$$$$$%%%...         ",
"         ...%%%$$$$$$$$$$$$$$$$$$%%%...         ",
"         ...%%%$$$$$$$$$$$$$$$$$$%%%...         ",
"         ...%%%%%%%%%%%%%%%%%%%%%%%%...         ",
"         ...%%%%%%%%%%%%%%%%%%%%%%%%...         ",
"         ...%%%%%%%%%%%%%%%%%%%%%%%%...         ",
"         &&&...%%%%%%%%%%%%%%%%%%...&&&         ",
"         &&&...%%%%%%%%%%%%%%%%%%...&&&         ",
"         &&&...%%%%%%%%%%%%%%%%%%...&&&         ",
"      &&&&&&&&&...***======***...&&&&&&&&&      ",
"      &&&&&&&&&...***======***...&&&&&&&&&      ",
"      &&&&&&&&&...***======***...&&&&&&&&&      ",
"      &&&&&&&&&***---;;;;;;---***&&&&&&&&&      ",
"      &&&&&&&&&***---;;;;;;---***&&&&&&&&&      ",
"      &&&&&&&&&***---;;;;;;---***&&&&&&&&&      ",
"      &&&&&&&&&&&&***>>>>>>***&&&&&&&&&&&&      ",
"      &&&&&&&&&&&&***>>>>>>***&&&&&&&&&&&&      ",
"      &&&&&&&&&&&&***>>>>>>***&&&&&&&&&&&&      ",
"      &&&&&&&&&&&&&&&&&&&&&&&&&&&&&&&&&&&&      ",
"      &&&&&&&&&&&&&&&&&&&&&&&&&&&&&&&&&&&&      ",
"      &&&&&&&&&&&&&&&&&&&&&&&&&&&&&&&&&&&&      ",
"         &&&&&&&&&&&&&&&&&&&&&&&&&&&&&&         ",
"         &&&&&&&&&&&&&&&&&&&&&&&&&&&&&&         ",
"         &&&&&&&&&&&&&&&&&&&&&&&&&&&&&&         "};
